<svg width="24" height="24" viewBox="0 0 24 24" fill="none" xmlns="http://www.w3.org/2000/svg">
<rect width="24" height="24" rx="4" fill="#BD081C"/>
<path d="M12 5C8.1 5 5 8.1 5 12C5 14.9 6.8 17.4 9.4 18.3C9.3 17.6 9.3 16.6 9.5 15.8L10.7 10.8C10.7 10.8 10.4 10.2 10.4 9.3C10.4 7.9 11.2 6.9 12.2 6.9C13.1 6.9 13.5 7.5 13.5 8.3C13.5 9.2 12.9 10.5 12.6 11.7C12.4 12.7 13.1 13.5 14.1 13.5C15.9 13.5 17.3 11.6 17.3 8.9C17.3 6.6 15.7 5 12.1 5C8.1 5 5.8 7.9 5.8 11.1C5.8 12.1 6.2 13.2 6.7 13.8C6.8 13.9 6.8 14 6.8 14.1L6.5 15.4C6.5 15.6 6.4 15.7 6.2 15.6C4.9 15 4.1 13.2 4.1 11.1C4.1 7.4 6.8 3.9 12.4 3.9C16.9 3.9 20.4 7 20.4 8.8C20.4 12.8 17.8 16 14.2 16C13.2 16 12.3 15.5 12 14.9L11.4 17.1C11.1 18.2 10.4 19.6 9.9 20.4C10.6 20.6 11.3 20.7 12 20.7C15.9 20.7 19 17.6 19 13.7C19 9.8 15.9 6.7 12 6.7V5Z" fill="white"/>
</svg>