<svg width="24" height="24" viewBox="0 0 24 24" fill="none" xmlns="http://www.w3.org/2000/svg">
<rect width="24" height="24" rx="4" fill="#000000"/>
<path d="M16.6 8.1C15.9 7.6 15.5 6.8 15.5 6H13.8V14.5C13.8 15.6 12.9 16.5 11.8 16.5C10.7 16.5 9.8 15.6 9.8 14.5C9.8 13.4 10.7 12.5 11.8 12.5C12 12.5 12.2 12.5 12.4 12.6V10.9C12.2 10.9 12 10.9 11.8 10.9C9.8 10.9 8.2 12.5 8.2 14.5C8.2 16.5 9.8 18.1 11.8 18.1C13.8 18.1 15.4 16.5 15.4 14.5V10.4C16.2 11 17.2 11.3 18.2 11.3V9.7C17.5 9.7 16.9 9.1 16.6 8.1Z" fill="white"/>
</svg>