<svg width="24" height="24" viewBox="0 0 24 24" fill="none" xmlns="http://www.w3.org/2000/svg">
<rect width="24" height="24" rx="4" fill="#1DA1F2"/>
<path d="M18.5 7.5C18 7.75 17.5 7.9 17 8C17.5 7.7 17.9 7.2 18.1 6.6C17.6 6.9 17 7.1 16.4 7.2C15.9 6.7 15.2 6.4 14.4 6.4C12.9 6.4 11.7 7.6 11.7 9.1C11.7 9.3 11.7 9.5 11.8 9.7C9.7 9.6 7.8 8.5 6.5 6.9C6.3 7.3 6.2 7.7 6.2 8.2C6.2 9.1 6.7 9.9 7.4 10.3C6.9 10.3 6.5 10.2 6.1 10V10C6.1 11.3 7 12.4 8.2 12.7C8 12.8 7.7 12.8 7.4 12.8C7.2 12.8 7 12.8 6.8 12.7C7.2 13.8 8.2 14.6 9.4 14.6C8.5 15.3 7.3 15.7 6 15.7H5.5C6.7 16.5 8.1 17 9.6 17C14.4 17 17.1 12.8 17.1 9.4V9C17.6 8.7 18.1 8.1 18.5 7.5Z" fill="white"/>
</svg>