<svg width="24" height="24" viewBox="0 0 24 24" fill="none" xmlns="http://www.w3.org/2000/svg">
<rect width="24" height="24" rx="4" fill="#FF0000"/>
<path d="M19.6 8.2C19.5 7.7 19.1 7.3 18.6 7.2C17.7 7 12 7 12 7C12 7 6.3 7 5.4 7.2C4.9 7.3 4.5 7.7 4.4 8.2C4.2 9.1 4.2 12 4.2 12C4.2 12 4.2 14.9 4.4 15.8C4.5 16.3 4.9 16.7 5.4 16.8C6.3 17 12 17 12 17C12 17 17.7 17 18.6 16.8C19.1 16.7 19.5 16.3 19.6 15.8C19.8 14.9 19.8 12 19.8 12C19.8 12 19.8 9.1 19.6 8.2ZM10.5 14.5V9.5L15 12L10.5 14.5Z" fill="white"/>
</svg>